<?xml version="1.0" standalone="no"?>
<!DOCTYPE svg PUBLIC "-//W3C//DTD SVG 1.1//EN" "http://www.w3.org/Graphics/SVG/1.1/DTD/svg11.dtd">
<svg xmlns="http://www.w3.org/2000/svg">
<metadata>Copyright (C) 2016 by original authors @ fontello.com</metadata>
<defs>
<font id="fontello" horiz-adv-x="1000" >
<font-face font-family="fontello" font-weight="400" font-stretch="normal" units-per-em="1000" ascent="850" descent="-150" />
<missing-glyph horiz-adv-x="1000" />
<glyph glyph-name="folder" unicode="&#xe800;" d="M929 511v-393q0-51-37-88t-88-37h-679q-51 0-88 37t-37 88v536q0 51 37 88t88 37h179q51 0 88-37t37-88v-18h375q51 0 88-37t37-88z" horiz-adv-x="928.6" />

<glyph glyph-name="tag" unicode="&#xe801;" d="M250 600q0 30-21 51t-50 20-51-20-21-51 21-50 51-21 50 21 21 50z m595-321q0-30-20-51l-274-274q-22-21-51-21-30 0-50 21l-399 399q-21 21-36 57t-15 65v232q0 29 21 50t50 22h233q29 0 65-15t57-36l399-399q20-21 20-50z" horiz-adv-x="857.1" />

<glyph glyph-name="hellocoton" unicode="&#xe802;" d="M928 605c-31 25-68 36-107 37-30 0-58-8-86-18-11-4-22-8-32-12-2 26-2 50-6 73-5 24-16 46-23 69-3 1-4 1-5 1-2 3-4 5-6 7-19 24-42 42-69 56-40 20-82 26-126 22-75-6-129-43-158-112-15-38-21-77-15-118 0-5 0-11 0-17-6 1-11 2-15 4-27 12-55 15-84 13-59-4-108-28-145-74-38-46-55-100-50-161 4-60 33-106 84-138 31-20 66-31 103-37-14-23-29-45-41-68-27-54-29-109-1-163 29-57 76-97 137-117 64-22 122-11 174 31 25 20 44 46 61 73 4 5 8 11 12 18 6-8 11-15 16-21 22-28 47-52 78-68 37-18 76-22 116-15 22 4 45 8 64 21 19 13 39 25 55 41 40 38 62 85 62 141 0 45-16 84-43 119-9 13-19 26-29 40 5 2 7 4 10 4 32 6 60 19 86 39 42 31 67 73 72 124 9 84-23 154-90 206z m-107-352c-73 73-203 108-274 74 8-4 15-8 21-11 27-14 51-30 70-54 19-23 29-49 30-79 1-37-4-73-25-105-23-33-58-62-99-71 20 50 29 100 27 153-2 39-9 77-32 111-3 4-7 9-13 16-2-7-3-11-3-14-1-71-37-118-101-146-28-12-58-13-89-10-29 3-56 13-79 31-15 13-27 28-36 47 3 1 5 2 6 2 72-9 138 6 201 41 21 11 56 46 65 66-11 3-21-2-31-3-28-2-56-5-84 1-41 10-71 34-89 73-19 41-27 84-17 129 4 22 15 42 31 58 6-20 12-40 20-58 10-25 20-51 35-73 28-43 67-75 116-93 1-1 3 0 7 0-2 7-3 12-5 17-6 13-12 25-17 38-29 74 0 145 65 185 43 26 89 32 137 22 3-1 7-3 12-5-12-10-23-19-34-28-29-23-56-48-78-79-19-28-30-59-35-91-2-10-7-21 0-34 11 9 21 18 32 26 22 18 44 34 73 40 43 10 82 2 119-21 47-30 81-99 74-155z" horiz-adv-x="1018.6" />

<glyph glyph-name="alimentaire" unicode="&#xe803;" d="M535 409c-16 3-33 4-49 10-31 11-62 24-92 38-51 24-101 54-163 57 20 15 36 27 53 39 51 38 84 87 95 151 7 45 17 90 25 137 107-56 215-109 307-194-93-26-186-39-279-54 0-2-1-4-1-6 24-5 48-11 72-16 59-14 117 0 174 16 22 6 44 13 66 17 7 2 18-1 23-5 51-49 100-99 152-148 55-52 51-115 36-180-4-19-19-24-36-24-35-1-69-2-104-2-122-1-244-1-366 0-121 1-242 2-363 4-9 0-19 4-25 10-17 18-35 37-49 58-20 34-13 61 21 80 46 28 92 54 139 79 9 5 24 5 35 1 37-14 75-27 108-47 49-30 101-35 155-30 22 2 44 4 66 6 0 1 0 2 0 3z m-452-228c37 0 72 0 107-1 5 0 12-8 14-14 21-59 42-119 62-179 3-7 5-14 12-20-7 70-13 140-20 211 20 0 38 0 56 0 9-71 18-141 27-212 2 0 3 0 5 0 13 70 26 140 40 211 38 0 76 0 116 0-10-70-19-140-28-209 1 0 1-1 2-1 3 5 5 10 7 16 24 58 47 117 70 176 5 14 12 20 27 18 11-1 21 0 34 0 7-37 15-74 22-111 1-1 2-1 3-2 2 6 4 11 6 17 7 26 15 53 22 79 2 9 6 14 16 14 19 0 37 0 58 0-2-58-5-115-7-179 5 10 7 15 9 20 21 48 41 97 61 146 4 10 10 14 22 14 31-1 63 0 97 0-6-18-12-34-18-49-22-59-44-118-67-177-13-34-32-65-61-89-16-13-34-19-55-19-144 1-288 2-433 4-16 0-33 2-49 2-31 2-54 16-65 45-14 36-27 72-39 109-18 59-35 118-53 180z" horiz-adv-x="963.9" />

<glyph glyph-name="differences" unicode="&#xe804;" d="M64-157c1 3 1 5 2 6 4 7 7 13 10 20 5 9 8 17 12 26 4 9 8 19 12 29 11 25 22 49 32 73 8 19 16 38 24 57 1 2 2 4 2 6-2 0-4 1-6 1-17 0-35 1-53 1-32 0-64 0-96 0-1 0-2 0-3 0 0 64 0 129 0 194 1 0 2 0 3 0 80 0 160 0 240 0 3 0 4 0 5 3 22 48 43 97 65 146 3 7 6 14 9 22 0 0 0 1 1 3-107 1-214 1-321 1 0 64 0 129 0 193 137 0 273 0 410 0 0 2 0 3 1 4 1 8 4 16 8 23 9 20 18 41 27 61 18 41 36 81 53 122 2 5 5 7 11 7 59 0 118 0 178 0 1 0 2 0 4 0-2-4-2-7-4-11-3-5-6-10-8-15-4-7-7-14-10-21-21-46-41-93-62-139-3-8-7-16-11-24-1-1-1-3-1-4-1-2 0-3 2-3 4-1 8-1 11-1 49 0 97-1 146-1 1 0 2 0 3 0 0-64 0-129 0-193-1 0-2 0-4 0-81 0-162 0-243 0-2 0-3-1-4-3-14-31-27-62-41-93-11-25-22-50-33-75-1-1-1-2-1-3 1 0 3 0 4 0 20 0 40-1 61-1 85 0 171 0 256 0 1 0 2 0 3 0 0-65 0-129 0-194-1 0-2 0-4 0-113 0-226 0-339 0-19 0-38-1-57-1-3 0-6-1-9-1-1-1-3-2-3-3-23-51-45-102-68-154-8-19-17-39-26-58 0-2-1-2-3-2-57 0-114 1-171 1-5 0-9 1-14 1z" horiz-adv-x="759.8" />

<glyph glyph-name="grossesse" unicode="&#xe805;" d="M916 757c-19 18-44 29-72 29-32 0-64-14-88-39-2-2-4-5-6-7l-13-19c-5 1-10 1-16 1-22 0-44-5-64-16-10 7-21 10-32 10-14 0-28-5-39-16l-69-70c-1 0-2-1-2-1-5 0-11 1-16 1-28 0-55-11-74-31l-340-340c-39-38-39-96 0-135l198-199c19-18 43-28 68-28 25 0 49 10 67 28l340 341c25 24 35 58 30 90 0 0 1 1 1 1l70 70c10 10 16 24 16 39 0 12-3 23-10 32 16 29 18 56 16 80l18 12c3 2 5 5 8 7 46 47 50 118 9 160z m-197-452l-340-340c-9-9-19-13-28-13-11 0-21 5-29 13l-198 198c-15 15-19 38 0 57l44 44 61-61c2-2 5-3 8-3 0 0 1 0 1 1 4 0 7 2 10 5 6 6 7 14 2 19l-60 61 92 92 60-61c2-2 5-3 8-3 1 0 1 0 2 0 3 1 7 2 10 5 6 6 7 15 2 20l-61 61 92 92 61-61c2-2 5-3 8-3 0 0 1 0 1 0 4 0 8 2 11 5 6 6 7 15 2 20l-61 60 47 47c10 10 23 14 35 14 11 0 22-3 29-11l194-194c15-15 16-45-3-64z m31 92l-194 194 69 70 195-195-70-69z m117 239l-47-32c7-35 12-62-14-96l-139 139c20 15 37 20 54 20 14 0 27-3 42-6l32 47c15 15 33 22 49 22 13 0 24-4 32-13 20-19 16-56-9-81z" horiz-adv-x="1000" />

<glyph glyph-name="oregon" unicode="&#xe806;" d="M785-33l27 116 30 115 7 27 15 36-4 8-16 0-8 11 3 9 3 21 29 35 12 7 7 8 10 23 26 36 23 25 1 22-21 16-8 29-85 24-97 23-99-1-3 9-36-13-28 4-16 10-8-5-30 2-11 9-34 13-5-1-28 10-13-12-39 2-39 27 5 5 1 50-14 25-27 4-4 16-16 3-37-13-14-42-21-65-21-41-32-91-42-87-52-81-12-19-6-55-8-39 17-22 44-15 74-21 51-16 80-24 171-46z" horiz-adv-x="1000" />

<glyph glyph-name="pinterest" unicode="&#xe807;" d="M536 760c-240 0-361-172-361-316 0-86 33-163 104-192 11-5 22 0 25 12 2 9 8 32 10 41 4 13 2 17-7 28-20 24-33 55-33 99 0 127 95 242 248 242 135 0 210-83 210-194 0-145-65-268-160-268-53 0-92 44-80 97 15 64 45 133 45 179 0 41-22 76-68 76-54 0-97-56-97-131 0-47 16-79 16-79s-56-234-65-275c-20-82-3-182-2-192 1-6 9-7 12-3 5 7 69 86 91 165 6 23 36 139 36 139 17-34 68-63 123-63 162 0 272 148 272 346 0 149-127 289-319 289z" horiz-adv-x="1000" />

<glyph glyph-name="usa" unicode="&#xe808;" d="M434 41c-8 24-20 47-37 66-21 7-32-2-37-19-48 13-26 49-66 79l1 0c0 0 0 1 0 1l0 2 0 1 0 1 16-2 37-4 18-2 2 0 1 1 1 1 0 2 3 33 3 34 3 34 1 15-5 0 55-4-1-30c0-4-2-15 0-17 2-4 19-10 24-12 6-3 27-13 33-14 2 0 7 1 9 1l32 4 12-4c0 0 0 0 0-1 0-1 6-2 10-3l0-10h0c0-1-1-2-1-4 0-1 1-3 2-4 0 0 0 0 0 0 0-3 0-7 0-10 0-2 0-3 0-5 1-6 0-6 2-11l1-3c1-3 3-6 4-9l4-12-6-32c0-1 0-1 1-2-15-5-28-15-38-29-33-12-42-38-31-72-25 1-44 13-53 40z m398-12c-16 12-28 26-32 46 1 10 0 19-3 28-10 11-17 25-37 24l-17-12c-12 10-25 17-43 13 0 1 0 2 0 3-1 2-2 5-2 8l-1 2 20 1 23 3 0-1c2-2 3-5 4-5 6-1 23 3 30 3 13 2 27 5 40 7 1 0 2 1 3 2 3-31 21-57 39-84 12-16 12-36 7-57-15-2-23 9-31 19z m-182 59c-29 1-45 23-52 12-12-1-20 2-27 6-4-1-7-1-10-2 1 7 3 15 4 22 1 3 3 8 2 11 0 4-7 21-10 28l0 1 0 16c0 1 0 2 0 3-1 0-2 0-4 0 21 1 41 1 61 5-1-1-2-1-3-1l2-14-2-6c-3-7-5-15-7-22 0-3-4-8-1-10 2-2 7-1 10-1 5 0 10 1 15 1l13 1 6-19c0-1 1-1 1-1-1-1-1-2-2-3l17-27c-5 0-9-1-13 0z m-5 56c-2 0-21-1-32-1l-3 0 7 20c1 3 3 8 3 11 1 3-1 9-1 12l-3 26 12 30c-1 0-1 0-2 0 13 1 25 2 37 4 0 1 0 3 0 5 1-42 3-83 7-124 0-1 0-1 0-2-7 0-13-1-18-4-1 4-5 22-7 23z m30-19c0 1 0 1 0 2 1 40 0 80-2 120 13 1 26 2 39 4 1 0 2 0 3 0 0 1-1 3-1 5 8-35 15-70 25-104 0 1-1 2-1 3-3-1-7-1-9-1-7 0-17-1-23-2-6-1-15 0-20-4-2-2 3-17 4-20 0-1 1-2 1-3-1 0-2 0-3-1-5 1-9 1-13 1z m74 23l-2 3c-1 1-2 3-3 3 0 0 0 0 0 0-5 33-12 65-19 98 10 1 20 1 29 3 2 0 4 0 5 1l1 1-1-2-1-2 0-1 0-2 1-1 16-16 15-15 16-16 16-14c0-1 1-1 2-1-4-9-7-20-8-33 0 0 0-1 0-1 0 1-1 1-2 1-12-1-23-2-34-3l-31-3z m-506 15c0 0 0 1 1 1l9 64 10 65 3 19-9 1-3-19-8-65-8-64c0-1 0-1 0-1-37 3-74 22-109 50l0 1c2 0 4 2 5 4l3 16 4 15 4 15 4 16 0 1 0 1 0 1 0 1-2 2 3 18 3 0c4-2 9-3 10-1 3 4 5 13 6 21l-4 1 207-27-1-7c0 0 0 0 0 0 0-1-1-2-1-2 0-1 0-2 1-3 0 0 0 0 0 0l-8-115-40 3c-7 1-16 2-22 2-3 0-8 2-10 0-1-1-1-7-1-9 0 0 0 0 0 0l-30 5-3-10c-5 0-9 0-14 0z m582 28c-9 11-19 22-28 33l-27 29 3 5c0 1 0 1 1 1v0c3 2 7 4 9 6l23 2c2-3 5-7 7-7 4-1 15 2 22 3l1 0 24-19c0 0 0 0 0 0-4-4-6-11-8-18-10-10-20-21-26-35 0 0-1 0-1 0z m-211 4c-19 1-38 1-57 1 0 1 0 2 0 3 0 3 1 8-2 11 0 0-3 1-5 2l-4 1-2 67c-1 0-2 0-3 0 21 0 43 1 64 2l16 1c-2-5-3-10-1-11 2-2 13-1 16-1-1 0-3 0-6 0-3-7-5-13-8-21 0 0 0 0 0 0-1-1-1-1-1-2 0 0 0 0 0 0l0 0c0-1 0-1 0-1 0 0 0 0 0 1-1-2-1-3-2-5-2-6-11-25-12-30 0-3 2-10 2-13l1-5c1 0 3 0 4 0z m-75 19c1-1 2-2 3-2-1 0-2 1-3 2z m-11 4c-4 1-31-2-41-3l-49 23 1 17c0 6 0 13 1 20 0 3 1 11-2 14-3 2-16 2-21 2-12 2-24 2-36 3l0 6c-2 0-4 1-5 1 3 0 11-2 17-2 0 0 0 0 0 0 1-1 2-2 4-2 47-1 94-2 142-1-2 0-3 0-4 0l0-20c1-12 1-25 2-37 0-5 0-17 0-25-3 2-6 3-9 4z m-405 2l-42 7c-8 34-25 57-55 64 3 24-1 43-13 58 4 3 7 6 8 12-6 3-9 8-9 14 2 5 3 10 2 15l-8 8c6 11-1 19-5 27 7 17 5 30-1 43 8 11 13 22 14 36 0 0 0 0 0 0 24-6 48-12 72-17l-5-16-5-20-6-20-5-20 0-1 0-1 0-1 0 0 19-33 18-32 19-32 18-30-4-13-4-16-4-15-4-15c0-1 0-1 0-2z m740 28c-3 3-6 6-10 9-2 2-13 13-15 13-2 1-15-1-21-2l-2 0c-2 3-4 7-6 7-4 1-13 0-17 0-3-1-9 0-11-1-3-1-10-5-14-8l0 0c0 0 0 0 0 0l-15-2c0 0 0 0-1 0 0-1 0 0 1 0 14 12 28 26 42 41 0-1 0-1 0-1 9 2 19 4 29 6 25 5 50 9 75 15 2 0 3 1 2 3 0 0 0 0 0 0 4-6 8-12 11-21-3-7-8-13-16-17 1-5 5-5 8-6-13-7-24-17-29-35-4 0-7-1-10-2 0 0 0 1-1 1z m-231 5l7 16c2 5 6 11 9 17-1 0-2 0-3 0 6 0 11 0 17-1 9 0 9 2 10 8l0 1c0 0 0-1 0-1l75 7c3 0 7 0 10 0 0 0 0 0 0 0 1 0 3 0 4 1l0 0c5 0 11 0 16 1 3 3 7 7 10 10-16-16-32-32-46-50 0 1 1 1 1 2l-21-2c-1 0-2 0-3 0-1 0-1-1-2-1l-19-2c-22-2-43-4-65-6z m-3 24l-2 0 1 2c2 4 3 10 2 11-5 4-19 1-25 1-4 1-9 0-13 0-16 1-32 0-48-1l0 8c-1 8-1 15-1 22 0 7 0 16-1 22 0 5 1 12 0 16-2 6-9 15-13 21l-1 2-3 10c-2 0-4 0-6 0 25-1 51-2 76 0-1 0-3 0-5 0 0-2 0-5 0-8 0-2 0-6 1-7 2-4 8-8 11-12l15-14-1-2c-1-5-3-13-2-15 2-3 9-7 12-10l7-4 6-16 1-10c0 0 0 0 0 0 0-1 0-1 0-2 0 0 0 0 0 0 0 0 0 0 0 0l-2-4c-2-4-4-7-5-10-1 0-3 0-4 0z m12 11c1 0 1-1 1-1 0 0-1 0-1 1z m-499 7l-31 53-19 32-19 30 5 19 5 20 4 20 4 17c32-8 64-15 95-22 1 1 1 2 1 3-8-40-16-80-23-120l-2-12h0c-1-1-2-2-2-4 0-1 0-2 1-3 0 0 0 0 0 0l-3-17-2 1c-5 1-10 2-11 1-2-3-2-13-3-18z m501 0c-1 0-1 0-1 0 0 0 0 0 1 0z m19 1l-6 0c-2 0-4 0-6 0 0 2-1 5-2 8l-2-1 15 7 15 6 14 7 15 7 1 0 1 1 4 7 4 6 5 6 4 7 0 1 1 0 0 1 0 1 0 2-6 2 12-4 11-4 19-6c0 0 0 0 0 1 4-7 8-13 13-19 1-1 2-2 3-3-1 1-2 2-3 3 0 0 0 0 0 1-6-6-14-17-18-23-11-1-23-2-34-3-10 0-21-1-31-2-17-3-27 3-29-8l0-1z m-128 5c-45 4-91 5-137 7 1-1 2-1 4-1 0 6 0 14 0 16 2 10 2 22 3 33 0 7 1 14 1 22-1 0-3 0-5 0 41-1 83-3 124-1-1 0-3-1-4-1 2-5 6-11 10-16l2-5 2-54c2 0 3 0 5 0-2 0-3 0-5 0z m-142 4l0 0-12 1-1 1-2 1-110 14 5 35 9 59c-2 1-4 1-6 1 30-3 61-6 91-6-2 0-3 0-5 0l1-1 1-1 2-1 9-1 9-1 14-1-1-19h0c0 0-1-1-1-3 0-1 1-2 1-3 0 0 0 0 0 0l-1-24-1-27 0-22c-1-1-1-1-2-2 0 0 0 0 0 0z m249 0l5 6c-2 7-4 12-6 14-2 2-9 7-15 11l-1 1 0 1c1 5 3 13 3 14-1 3-19 20-26 28l-1 0v11l0 0c3 5 8 12 9 16 1 1-1 7-1 10l1 2c5 5 12 12 13 15 1 3-3 9-5 11-3 0-6 0-8 0 16 1 32 2 47 6-1 0-3-1-4-1 1-5 6-14 8-19l3-40 3-39-6-23-19-24z m16 10c4 4 7 8 9 10 1 3 3 10 4 13 1 4 4 10 4 13 1 3 0 6 0 9 0 5-1 11-1 16-1 13-1 27-2 40 0 3 0 8-1 12-1-1-2-1-3-2 4 2 13 5 15 7-1 0-2 0-3 0 10 0 20 1 30 2 0 2 0 4-1 6 2-14 3-28 4-41l3-39-15-24-27-14c-10-5-19-10-29-15 4 2 9 5 13 7z m99-5c-1-1-1-1-1-2 0 1 0 1 1 2z m14 1l10 13 1-2c3-1 5-3 6-3 4 1 10 5 14 6 3 2 13 5 15 7 1 2 4 17 7 27l0 1 2-1c1 0 2 0 3 0 4 3 8 13 10 18l11 22 20 5c4 1 9 2 13 3 2 0 6 1 7 2 3 1 6 6 8 9 2 2 8 7 8 11 0 2-6 7-10 10l-1 1 3 13c5-2 11-4 15-5 1-17 2-35-6-52-4 5-9 7-15 7 12-14 14-32 7-52-4 12-8 23-15 31-3-12-3-24 2-37 5-5 10-10 15-16-1 0-2 1-3 1-35-6-70-11-105-17-2 0-3 0-4 0l0 0c-6-1-12-1-18-2z m-512 13l-87 11c0 1 0 2 0 3 4 12 6 27 9 39 6 29 11 57 17 85 14-3 28-6 42-9l1 6c-15 4-30 7-45 11 0 1-1 1-2 1h-2c-16 4-32 8-48 12-1-1-1-3-2-4 11 32 19 66 28 99 0 0 0 0 0 1 0 0 0 0 0 0 2 4 2 13 3 16 5 20 8 43 12 65 0 0 0 0 0 1 3-1 5-1 8-2 0 0 0 0 0-1-2-5-3-10-4-15-1-3-3-9-3-12 0-2 2-6 4-9l0-1 0-2c0-3-1-8 0-10 0-3 9-12 15-18l2-3-1-5c-2-7-4-16-6-22-2-4-2-11 4-10 2 0 4 2 7 3l2 1 0-2c2-12 6-30 8-33 2-3 13-1 16-1 2-1 8-1 13-1l-3-18-7-47-4-24 0-2 1-2 2-1 1-1 9-1 10-2 9-1 4-1-8-60-5-34z m523 11c0 0 0 0 0 0 0-1 0-2 1-3-1 1-1 2-1 3-3 7-6 12-10 18l6 10 7 11 6 12 4 8 1 0 2 0 12 1 12 1 12 1 13 2-9-1c-1-2-1-4-2-5l-11-22-1 0c-2 1-4 1-6 1-3-2-3-7-4-10l-6-23-19-8c-2 1-5 3-7 4z m-17 25l-40 13-1 7-1 21-2 20-1 20 0-4c7 0 14 2 20 3 1 0 2 0 2 1 13-5 27-1 42 11l2-12 2-14 2-14 2-12c1 0 1 0 1 1-5-7-10-15-15-22l-13-19z m-358 28c0 4 0 7 0 11 0 4 2 10 0 14-2 2-9 2-11 2-5 1-10 1-14 2l-10 1 4 44c-2 0-3 1-5 1 34-3 69-6 103-7l14-1 6-3c3-1 5-3 8-4-2 1-3 1-4 2 1-8 6-21 9-29 3-10 6-21 10-32 0-2 1-4 1-7 3 0 5 0 7 0-39 3-79 5-118 6z m116 13l-15 52 0 16c-2 0-3 0-5 0 32 1 63 1 95 4-2 0-4 0-6 0 1-4 1-8 2-12 0-3 0-8 2-10 1-1 3-1 5-1l2 0 1-1c0 0 0 0 0 0 0-1 1-3 2-3 0 0 0 0 0 0l6-10-1-1c-5-5-13-13-13-15 0-2 1-7 2-10l0-1-2-3c-2-4-4-6-5-9 1 0 2-1 3-1-24 3-48 4-73 5z m278 2l-3 24c-1 10-2 19-4 29 0 1 0 2-1 3 1 1 2 1 3 2 1-3 2-7 5-7 5 0 12 2 18 3 17 3 36 7 54 11l6 2 6-7c2-2 5-5 8-8-1 1-2 2-3 3-1-2-1-5-2-6 0-2-3-12-3-14 1-2 3-4 6-7l3-3-9-11-2 0c-11-3-36-8-39-10-1-1-2-2-3-3 2 0 4 0 5 0-8 0-16 0-24 0l-21-1z m-524 24l-8 2-9 1-9 2-4 0 10 66 4 24c0 1 1 3 1 5l1 4 43-6c15-2 31-4 46-6 3 0 12-1 19-2l-2-22-2-25c-1 0-1-1-1-2 0 0 0-1 0-2l0 0-2-25-2-24c2 0 3-1 5-1-29 5-59 8-90 11z m386 25l0 1 2 35c0 5 1 11 1 16-1 5 3 15-2 18-1 0-2 0-2 0l-1 0 0 1c0 1 0 1-1 2h0c3 4 5 10 6 13l1 1 22 13 10-4c0 1 1 1 1 2-2-6-4-11-6-16l-1-4-1 1c-5 4-8-3-9-7-3-8-8-20-10-28-1-4 5-29 7-36l-4-19h0c0 0-1 0-1-1l-6-2c-2 4-4 10-6 14z m24-7c5 14 4 15 0 30l-4 19 7 22c1-1 1-2 2-2 6 1 6 11 8 15 2 5 3 12 4 18 5-7 20-4 22-12 6-12 5-25-4-38 4-8 10-1 16 8 19-14 13-36 2-60 0 0 0 0 0 0-7 0-15 0-22 0v0c-1 1-2 1-4 1-1 0-2 0-3-1-8 0-16-1-24-2 0 1 0 1 0 2z m229 19c-1 9-4 22-6 32 0 0 0 0 0 0l-3-1 23 8 11 4 11 4 2 1c1-1 3-2 4-2l-6-9c6-5 12-9 21-8-24-32-42-44-56-44 3 5 0 8-1 15z m-304-9c-1 2-2 4-3 5-1 0-1 0-2 0l-3 0 0 6c-1 4-2 20-3 23-2 3-15 12-18 15l-10 8-4 20 4 4c2 2 4 4 5 6 2 3 5 16 6 20 0 1 0 2-1 3l16 6 0-8h3c0-1 1-2 1-3 1-2 4-9 6-10 3-2 12-3 16-5 4-1 8-2 12-3l8-3 1-3c1-4 2-10 4-13 0 1 1 1 1 2 0-1-1-1-1-2-2-5-5-13-3-17 2-2 4-2 6-1l2 1 0-11c-1-8-1-15-1-23-1-4-2-10-2-15 2-1 3-1 5-1-16 1-32 0-48-1 1 0 2 0 3 0z m-115 2l-3 2-3 3-2 0-29 3-30 3-29 3-24 2 5 48c0 1 0 2-1 3 0 0 0 0 0 0 1 6 0 14 1 18 0 0 0 0 0 0-1 0-3 0-4 0 42-2 84-4 126-4h-6c0-20 0-40 0-59 0-6-1-15-1-22z m412 2l-5 1c-4 2-8 3-10 3-5 5-11 14-13 15-3 1-20-3-25-4-14-2-28-5-41-7l-10-2 0 2c-1 1-1 2-2 2 3 4 7 8 10 13l-5 14c12 7 23 7 32 5 9 5 15 13 11 26l17 29c8 1 16 2 24 3 0 0 0 0 0-1l9-54c0 0 0 0 0 0-1-1-2-3-1-5 0-2 1-3 3-3l6-37z m-312 20c-31 1-62 1-94 1 2 0 3 0 5 0l0 30c1 10 1 21 1 31-1 8-2 17-3 25-2 19-4 39-6 58 0 0 0 0 0 1 9-1 17-1 26-1l2 10c6-4 7-10 7-17 28-1 56-4 80-17-13-10-24-20-34-32 0 0-1 0-1 0-3 1-6-1-6-4l-5-16c-3-4-9-10-10-12-1-3 1-10 2-13 0-3 2-15 3-17 2-4 19-16 26-22l1-1 1-4c2 0 4 0 5 0z m-459 6c-40 10-80 19-121 29-1 0-1 0-2 0 0 0 0 0 0 1 14 30 28 61 36 98l14-5 0-1c0-6-1-14 0-16 3-4 18-4 23-5 9-2 19-3 29-4 12-2 26-5 38-6 1 0 2 0 4 0 0 1 0 3 1 4-9-33-17-66-23-100 0 2 1 3 1 5z m759 74c0 1 0 1 0 1 8 2 17 5 27 12 1 2 2 3 3 5 3-10 6-21 9-31l9-27-19-6c-6-2-12-4-18-6-4 17-7 35-11 52z m-524-34l-66 9c-6 1-12 2-18 3-7 1-26 5-32 3-1 0-2-4-3-7l-1-4-24 0-3 11c-1 6-2 11-3 16-1 5 0 10-5 12-1 0-2 0-4-1l-2-1 2 7c2 8 4 15 4 17 0 3-13 16-18 22l0 1c0 3 1 8 0 10 0 1-1 3-2 5l-1 4 6 24c0 0 0 1 0 1 59-11 119-21 180-26 0-1-1-1-1-2l-7-77c0 0 0 0 1 0-2-1-3-3-3-4 0-2 1-3 1-3 1-1 1-1 0-1l-1-19z m579 1l-2 7-6 16-6 15-6 16c-1 1-1 1-2 1 9 16 14 37 14 63l8-6 9 9c14-11 17-26 19-42 10-1 16-9 21-19-5-8-12-16-21-23 0 5-3 7-7 8l-3-18c-9-3-15-12-18-27z m-296 12l-1 2c-1 4-2 6-2 7-4 2-20 6-25 8l-13 4-3 6c0 0 0 0-1 1 10 9 18 18 37 24-3-5-6-10-7-17 18 3 19-11 29-9 2 7 10 11 25 11 16-4 24-12 28-21-8 0-17 3-20-2-3 2-12 7-14 7-2 0-10-4-12-5-3-2-15-7-17-9-1-1-2-3-3-6l-1-1z m-273 15c-2 0-3 0-4 0 1 0 2 0 4 0 0 5 0 11 1 16 1 20 2 40 4 60 0 0-1 1-1 1 34-3 68-5 103-5 0-1 0-1 0-2 2-26 5-53 8-79 2-1 4-1 6-1-40 5-81 7-121 10z m-214 29c0 0 0 0 0 0 0 0 0 0 0 0z m-7 2l-87 14 1 6c0 5 0 9-1 10-3 3-16 7-21 9 0 1 0 1-1 1 3 16 5 33 6 52 19-14 34-22 35 6 29-8 58-14 87-20-1-1-1-1-1-1-3-14-6-27-10-41l-8-36z" horiz-adv-x="1000" />

<glyph glyph-name="rss" unicode="&#xe809;" d="M61 293c109 0 211-43 288-120 78-78 120-181 120-291h169c0 319-259 579-577 579v-168z m0 298c389 0 706-318 706-710h168c0 485-392 878-874 878v-168z m232-592c0-64-52-117-116-117s-117 53-117 117c0 64 53 117 117 117s116-53 116-117z" horiz-adv-x="1000" />

<glyph glyph-name="contact" unicode="&#xe80a;" d="M500 216c-17 0-31 6-62 21l-438 229v-437c0-35 28-63 63-63h875c34 0 62 28 62 63v437l-437-229c-32-15-46-21-63-21z m438 500h-875c-35 0-63-28-63-62v-48l500-263 500 263v48c0 34-28 62-62 62z" horiz-adv-x="1000" />

<glyph glyph-name="instagram" unicode="&#xe80b;" d="M891 829h-782c-54 0-97-43-97-97v-782c0-54 43-97 97-97h782c54 0 97 43 97 97v782c0 54-43 97-97 97z m39-820c0-54-44-98-98-98h-664c-54 0-98 44-98 98v430h39v332h39v-332h40v332h39v-294c11 15 25 29 39 42v252h39v-221c58 40 128 63 203 63 131 0 246-70 309-174h113v-430z m0 664c0-32-27-58-59-58h-102c-33 0-59 26-59 58v39c0 33 26 59 59 59h102c32 0 59-26 59-59v-39z m-424-265c-85 0-154-70-154-155 0-85 69-154 154-154s154 69 154 154c0 85-69 155-154 155z m0 134c-158 0-285-127-285-285 0-157 127-285 285-285 157 0 285 128 285 285 0 158-128 285-285 285z m0-500c-119 0-215 97-215 215 0 119 96 215 215 215 118 0 215-96 215-215 0-118-97-215-215-215z" horiz-adv-x="1000" />

<glyph glyph-name="location" unicode="&#xe80c;" d="M480 325c-88 0-160 72-160 161 0 89 72 161 160 161s160-72 160-161c0-89-72-161-160-161z m0 516c-196 0-354-159-354-356 0-186 160-426 267-542 40-44 87-103 87-103s50 59 93 104c106 112 260 337 260 541 0 197-158 356-353 356z" horiz-adv-x="1000" />

<glyph glyph-name="arabesque" unicode="&#xe80d;" d="M889 670c-46 19-95 7-130-29-34-36-42-82-17-118 31-43 64-55 114-33 2 2 4 3 6 1 1-1-1-4-1-5-5-15-16-26-28-35-25-20-55-30-85-40-50-16-102-22-151-39-6-2-10-1-15 2-22 19-45 37-70 56 10 6 18 10 25 16 21 19 42 21 66 4 15-11 35-13 54-14 17 0 33 13 37 28 2 15-8 30-25 36-13 5-26 7-40 4-15-4-30-8-45-15-7-3-14-5-21 0-19 14-39 28-57 47 23 26 40 54 47 87 8 41-3 71-35 90-13 8-25 8-38 1-25-12-38-32-39-59-2-24 4-46 14-68 9-19 22-35 34-51-12-17-30-25-43-38-12-12-24-14-41-6-24 11-50 17-77 9-17-6-26-19-24-34 2-16 16-28 33-29 8 0 16 1 24 3 20 3 38 11 56 19 6 3 11 6 18 1 16-10 32-20 49-30-22-18-43-35-63-52-9-8-17-9-29-5-24 9-50 14-76 20-49 12-99 22-142 50-17 10-33 22-39 42-2 2-3 4-1 5 2 2 4 0 5-2 3-1 6-1 9-3 35-16 66-9 93 18 27 29 36 63 21 100-21 52-81 85-135 71-105-27-158-131-109-231 24-50 63-86 114-109 43-19 88-31 134-41 17-3 35-5 52-15-20-30-39-59-52-92 41-14 81-27 122-40 9 32 21 62 41 88 21-15 39-31 56-50-25-30-39-65-48-102-9-44 9-92 44-114 12-7 23-7 35 1 34 21 53 66 44 108-8 39-23 76-48 108 18 18 35 36 57 48 22-25 30-57 42-88 41 14 80 27 120 41-14 35-37 62-53 95 44 10 85 20 125 30 70 19 127 54 167 116 62 97 17 201-81 242z m-240-183c12 0 24-5 23-19 0-13-12-16-23-16-21 1-39 8-60 21 22 9 40 15 60 14z m-300-36c-12-1-24 3-25 17 0 14 12 18 23 19 21 1 40-5 60-14-19-13-38-19-58-22z m466 41c-53 8-83 67-57 114 41 72 123 64 166 16-9-16-20-31-32-44-10 1-8 10-11 14-11 16-30 22-48 15-16-6-26-22-24-37 2-15 17-28 33-29 11 0 21 2 31 6 5-31-26-59-58-55z m58 78c0-14-14-12-22-15-12 1-23 5-23 15 0 13 11 18 24 19 12 0 21-7 21-19z m-411 86c1 19 17 35 33 35 14 1 31-12 35-30 8-42-2-79-31-111-30 30-40 66-37 106z m-20-180c21 16 40 30 58 49 15-21 35-34 55-49-18-11-33-21-49-31-4-2-8-4-13-1-16 10-32 21-51 32z m50-62c5 3 9 2 14-1 23-15 44-30 62-49-2-7-6-7-9-8-21-9-40-32-60-29-25 4-47 22-72 34 19 22 43 36 65 53z m-258 195c26-39 16-84-24-106-34-19-54-12-83 16-6 6-8 14-4 24 42-3 59 3 65 24 4 15-4 31-18 38-22 11-38 4-64-29-16 12-23 30-34 45 40 52 125 46 162-12z m-110-38c1 12 10 18 22 17 11-1 23-6 22-18 0-11-10-15-23-15-7 3-22 1-21 16z m16-217c-62 33-104 82-118 151-8 40 4 73 37 103 13-15 26-30 39-45 6-6 5-14 5-21-1-45 18-79 54-106 43-32 93-44 144-56 29-8 60-12 92-23-20-21-38-39-56-58-5-5-11-3-17-2-62 12-124 27-180 57z m240-184c-31 10-59 19-88 29 11 26 27 48 43 70 4 6 9 7 16 3 18-9 39-14 58-28-13-22-22-46-29-74z m43 88c-21 15-46 20-71 28 16 21 32 40 50 56 7 6 13 6 21 2 19-9 38-18 55-30-18-18-36-36-55-56z m115-191c3-27-5-51-25-69-10-9-19-9-28-1-17 14-24 32-25 52-1 43 10 81 38 118 19-33 37-64 40-100z m-38 136c-18 15-35 32-59 46 20 20 35 39 58 52 21-14 38-33 57-53-22-12-38-28-56-45z m23 115c0-1-1-1-1-1-1-1-3-3-4-4 1 1 2 3 3 3 0 1 1 1 1 1 0 0 1 1 1 1 0 0 0 0 0 0 21 11 43 34 63 28 25-7 41-36 60-59-26-10-50-15-75-30-16 20-32 40-48 61z m182-119c-28-9-55-18-84-28-13 25-25 48-37 72 19 15 42 20 63 30 7 3 11 0 15-5 16-21 31-42 43-69z m153 156c-57-31-119-45-182-58-6-1-12-2-17 3-17 19-34 38-54 59 39 9 75 17 110 25 49 12 97 27 136 62 29 26 43 56 42 94 0 15 5 25 15 35 11 10 20 22 30 35 35-33 45-71 34-113-16-64-57-110-114-142z" horiz-adv-x="1000" />

<glyph glyph-name="ffap" unicode="&#xe80e;" d="M663 48c-2 29-3 58-7 87-5 33-21 59-54 73-45 19-90 36-138 46-17 3-27 10-19 29 40 8 81 11 122 30-27 18-33 43-36 69-5 38-2 75 10 111 6 20 10 40 10 62 3 82-37 135-115 158-31 8-62 11-92 7-88-10-139-48-156-134-5-25-18-54 14-73 1-1 1-5 2-7 17-73 13-141-37-202 34-12 69-10 104-17 1-17-4-24-20-27-49-7-96-21-143-38-13-5-25-12-34-22-33-35-55-76-70-122-18-56 24-88 64-93 86-11 172-24 259-26 97-2 193 1 288 26 34 8 49 28 48 63z m-263 117c-29-20-62-18-90 0-38 25-8 61-14 93 23-1 41-10 60-10 19 0 37 4 58 9-3-32 22-68-14-92z m-11 109c-42-6-83-4-114 32-7 8-13 17-16 27-5 24-9 47-19 70-16 36 0 74-6 111-1 5 3 9 8 10 36 10 63 33 86 62 45-46 100-68 164-76-6-38 6-75-10-110-11-24-17-51-26-75-12-29-36-47-67-51z m613-199c-1 25-3 49-6 73-4 31-20 52-49 64-40 17-81 30-125 40 8 34 1 68 30 93 10 8 6 24 9 37 2 5-1 12 4 16 26 21 23 54 19 78-5 24-1 45 0 68 1 10 2 21 0 31-8 55-73 109-132 112-16 1-30-3-44-11-6-4-11-10-19-9-22 2-37-11-48-28-26-35-32-75-24-118 1-9 7-18 4-26-15-51 19-93 22-141 0-2 2-5 4-6 24-20 18-48 21-74 2-14-3-19-16-21-22-3-44-8-67-17 12-6 22-11 33-15 38-14 57-43 60-83 3-43 8-85 9-128 64-17 223-7 285 17 19 8 31 26 30 48z m-345 307c-3 40-6 81-10 121-1 13-1 20 15 25 21 6 37 21 53 41 34-21 70-31 108-31 10-1 13-6 14-16 1-6 1-13 4-18 18-26 12-52 7-79-3-16-4-32-6-49-4-27-18-42-46-45-33-3-66-3-99 4-26 6-38 20-40 47z m146-134c-1-14-9-21-21-23-25-4-49-4-73 2-13 4-19 10-19 24 0 19-2 39-3 62 42-12 80-13 120-3-2-22-3-42-4-62z" horiz-adv-x="1000" />

<glyph glyph-name="newsletter" unicode="&#xe80f;" d="M2296 824l-6-12 762-367-267-569-750 372 272 571-23 11-282-594 795-395 289 616-796 384-6-11z m5-47l187-548 530 184-9 24-505-175-178 523z m481-867l-122 350-24-8 122-350z m-376 490l-350-132 9-24 350 132z m-2307-281l-28 27c0 0-2-1-4-3-2-3-6-6-9-10-7-8-16-20-25-31-17-24-33-48-33-48l33-20c0 0 15 23 31 45 8 10 17 20 23 28 3 4 6 7 8 9 2 2 4 3 4 3z m131 72l-4 39c0 0-2 0-5-1-3-1-8-1-14-3-5-1-12-2-19-4-7-2-14-5-21-8-4-1-7-2-11-4-3-2-6-3-9-5-7-4-12-7-17-10-10-5-15-11-16-10l23-32c0 0 5 5 13 9 5 3 9 6 15 9 2 1 5 3 8 4 3 1 6 2 9 3 5 3 11 5 17 7 6 2 11 2 16 3 9 2 15 4 15 3z m151-33l16 35c0 0-6 3-16 7-10 5-24 10-38 15-14 5-28 8-39 10-11 3-19 3-19 3l-5-38c0 0 6 0 16-3 10-2 22-5 35-9 13-4 25-9 34-13 10-4 16-7 16-7z m143-82l20 33c-3 2-6 4-9 6-29 18-58 36-88 52l-19-34c30-15 58-33 86-51 4-2 7-4 10-6z m157-68l12 37c0 0-7 2-17 5-9 3-22 8-35 13-13 5-25 10-35 14-9 4-15 7-15 7l-17-35c0 0 6-3 16-7 10-4 23-10 37-15 13-5 27-10 37-14 10-3 17-5 17-5z m164-41l7 38c0 0-27 5-54 11-13 3-27 6-37 9-10 3-16 4-16 4l-11-37c0 0 7-2 18-5 10-2 24-6 38-9 27-6 55-11 55-11z m168-22l3 39c0 0-7 0-17 1-11 1-25 3-38 4-14 2-28 3-38 5-10 1-17 2-17 2l-6-38c0 0 7-2 18-3 10-1 24-3 38-5 15-1 29-2 39-3 11-1 18-2 18-2z m170-1l-3 39c0 0-7-1-17-1-10-1-24-1-38-1-14 0-27 0-38 0-10 0-17 0-17 0l-1-38c0 0 7-1 17-1 11 0 25 0 40 0 14 0 28 0 39 1 10 1 18 1 18 1z m168 24l-9 37c0 0-6-1-16-4-10-2-24-4-37-7-14-2-28-3-38-5-10-1-17-2-17-2l4-39c0 0 7 1 18 3 11 1 25 3 39 5 14 3 28 5 39 7 10 3 17 5 17 5z m161 60l-19 34c0 0-1-1-4-3-2-1-6-3-10-5-10-5-22-11-34-16-13-5-25-10-35-13-10-3-16-5-16-5l12-38c0 0 6 3 17 6 10 4 23 9 37 14 13 6 26 13 36 17 5 2 9 5 12 6 3 2 4 3 4 3z m130 116l-32 22c0 0-4-5-9-14-5-8-15-17-24-27-9-10-19-18-27-25-3-3-7-6-9-7-2-2-4-3-4-3l23-31c0 0 2 1 5 3 2 2 6 5 10 8 8 8 20 17 30 28 10 11 21 22 27 31 6 9 10 15 10 15z m56 166l-39 3c0 0 0-6-1-16-1-5-2-11-2-17-2-6-3-13-5-19-1-7-3-13-4-19-2-6-4-11-6-16-4-9-6-15-6-15l36-16c0 0 2 7 6 18 2 5 4 11 7 18 1 7 3 14 5 21 2 7 3 14 5 21 1 7 1 14 2 19 1 11 2 18 2 18z m-79 161l-22-33c0 0 2-1 4-2 2-2 5-4 9-7 7-6 16-15 24-24 7-10 13-21 16-29 4-9 5-15 5-15l38 10c0 0-2 8-7 19-4 12-12 25-21 38-10 13-21 24-31 31-9 8-15 12-15 12z m-173 39l4-39c0 0 7 1 16 1 10 1 23 1 36-1 13-1 26-4 35-6 10-3 16-5 16-5l12 37c0 0-7 3-18 5-11 3-26 6-41 8-15 1-30 1-41 1-12-1-19-1-19-1z m-153-93l34-19c0 0 0 2 2 4 1 2 3 5 6 9 5 7 13 17 23 24 9 8 20 14 29 18 8 4 14 6 14 6l-13 37c0 0-2-1-5-2-3-2-8-3-13-6-10-5-24-13-36-23-13-9-23-22-31-31-6-10-10-17-10-17z m32-174l29 25c0 0-5 5-11 13-6 8-13 18-19 29-6 11-9 23-11 31 0 4-1 5 0 9 0 3 0 5 0 5l-39 1c0 0 0-2 0-5-1-2 0-9 1-16 2-13 7-28 14-43 8-14 17-26 24-35 7-9 12-14 12-14z m133-109l21 33c0 0-23 15-45 31-23 16-43 34-43 34l-25-29c0 0 21-20 45-36 23-17 47-33 47-33z m151-78l15 36c0 0-25 10-50 22-25 12-49 26-49 26l-19-34c0 0 25-14 51-27 26-12 52-23 52-23z m163-50l9 38c0 0-7 1-17 4-10 2-24 5-37 9-13 4-26 8-36 11-10 3-16 5-16 5l-13-36c0 0 7-2 17-6 10-3 24-7 38-11 14-4 27-7 38-10 10-2 17-4 17-4z m169-22l1 38c0 0-6 0-17 1-10 1-23 1-37 3-14 2-27 3-38 5-10 1-17 2-17 2l-6-38c0 0 7-1 18-3 10-1 25-3 39-5 14-1 29-2 39-3 11-1 18 0 18 0z m172 21l-12 37c0 0-6-3-16-5-10-2-23-6-36-8-13-2-27-4-37-5-10-1-16-1-16-1l2-39c0 0 7 0 18 2 11 1 25 2 40 5 14 2 29 6 39 9 11 2 18 5 18 5z" horiz-adv-x="3085.9" />

<glyph glyph-name="interview" unicode="&#xe810;" d="M938 8c-6 28-23 53-37 83 18 25 9 48-10 72-36 42-70 85-105 129-73 90-147 181-219 271-34-96-96-160-196-195 146-117 289-232 430-345 24 5 42 9 59 13 45-67 26-118-46-135-40-10-72 7-98 32-33 30-61 65-93 97-38 37-74 77-117 107-212 148-469 13-506-214 13-4 26-9 44-16 12 31 20 55 31 78 45 89 114 145 217 157 88 10 159-24 220-80 44-40 81-88 124-129 33-30 68-60 107-79 51-25 104-12 149 22 44 34 57 81 46 132z m-757 434c52-46 108-56 171-25 61 30 109 74 146 130 59 88 46 176-40 241-75 57-160 71-246 29-77-37-118-102-114-194-4-72 28-132 83-181z" horiz-adv-x="941.4" />

<glyph glyph-name="expatriation" unicode="&#xe811;" d="M500 841c-276 0-500-224-500-500s224-500 500-500 500 224 500 500-224 500-500 500z m-187-500c0 104 83 188 187 188s188-84 188-188-84-187-188-187-187 84-187 187z m591-167v0l-173 71c12 30 19 62 19 96s-7 66-19 96l173 72c22-52 34-109 34-168s-12-116-34-167v0z m-236 571v0 0l-72-173c-30 12-62 19-96 19s-66-7-96-19l-71 173c51 22 108 34 167 34 59 0 116-12 168-34z m-572-236l173-72c-12-30-19-62-19-96s7-66 19-96l-173-71c-22 51-33 108-33 167s11 116 33 168z m237-572l71 173c30-12 62-19 96-19s66 7 96 19l72-173c-52-22-109-33-168-33-59 0-116 11-167 33z" horiz-adv-x="1000" />

<glyph glyph-name="video" unicode="&#xe812;" d="M0 716v-750h1000v750h-1000z m188-687h-125v125h125v-125z m0 250h-125v125h125v-125z m0 250h-125v125h125v-125z m562-500h-500v625h500v-625z m188 0h-125v125h125v-125z m0 250h-125v125h125v-125z m0 250h-125v125h125v-125z m-563 0v-375l250 187z" horiz-adv-x="1000" />

<glyph glyph-name="truck" unicode="&#xe813;" d="M1000 279l-125 250h-187v125c0 34-29 62-63 62h-562c-35 0-63-28-63-62v-500l63-63h79c-11-18-17-40-17-62 0-70 56-125 125-125s125 55 125 125c0 22-6 44-17 62h346c-10-18-16-40-16-62 0-70 56-125 125-125s125 55 125 125c0 22-7 44-17 62h79v188z m-312 0v187h129l94-187h-223z" horiz-adv-x="1000" />

<glyph glyph-name="portland" unicode="&#xe814;" d="M510 708c-18 11-37 22-54 35-31 22-61 45-90 67-8 6-8 9-1 15 11 9 13 9 23 0 22-20 43-41 67-59 23-18 48-32 73-47 13-7 26-3 36 8 16 17 21 38 27 59 3 10 5 20 8 29 1 5 4 7 9 4 6-3 11-5 17-8-11-48-33-88-71-119 11-9 23-8 33-10 19-3 39-3 58-5 9-1 17-6 23-14 8-10 19-17 32-19 13-2 26-4 39-5 9-1 15-11 11-19-2-4-5-8-8-10-19-12-38-24-57-36-14-9-15-14-13-31 3-28 21-46 38-64 16-17 33-33 49-50 17-19 29-42 34-68 2-12 1-25 1-37-1-15 3-22 19-22 39-1 78-2 118-3 12 0 24 0 36 0 6 0 11-3 12-10 4-13 9-27 12-41 2-5 0-9-5-12-77-53-155-106-232-158-3-2-7-3-10-4-14-4-27-8-41-11-9-2-14 1-15 11-2 7 3 10 9 11 23 4 40 18 58 32 39 32 79 63 119 94 2 2 4 3 6 5 5 5 3 13-4 15-5 1-10 1-15 0-28-5-56-11-84-16-8-1-14-1-21 6-11 11-26 11-42 4-19-9-37-18-57-24-32-11-66-16-100-12-29 4-58 9-87 15-8 1-15 5-23 7-15 4-28 1-38-13-11-14-23-27-35-39-17-18-40-29-62-39-30-13-61-22-93-27-13-2-22-8-29-18-34-47-67-95-100-142-20-28-41-57-61-86-7-9-24-8-28 3-2 3 0 8 2 12 24 41 48 82 73 122 27 47 55 94 83 141 4 7 9 9 18 8 14-2 29-1 39 12 7 10 8 22 3 33-7 19-17 38-25 57-4 11-7 22-10 33-3 13 1 24 8 34 6 9 5 12-5 16-5 1-11 2-16 4-29 12-55 27-74 51-9 12-9 12-2 24 10 15 20 29 31 44 1 2 5 6 7 5 2 0 5-4 6-7 10-27 27-51 45-73 10-12 25-20 37-30 6-4 13-3 20 0 52 20 105 40 157 59 51 20 102 39 154 59 13 5 17 17 11 30-6 12-12 24-17 37-8 18-8 37-8 55 0 4 0 7 0 10-1 11-5 15-16 17-9 1-18 1-28 2-8 1-16 1-24 3-3 0-8 3-9 6 0 3 3 7 5 10 12 11 25 21 38 31 5 4 9 9 7 16-2 7-8 9-14 10-21 3-42 6-62 10-34 8-67 20-99 35-45 21-84 51-121 83-5 4-6 7-3 12 2 4 3 8 5 12 3 10 9 10 17 4 32-26 63-52 96-76 29-20 62-34 95-45 21-7 44-10 65-13 7-1 13 1 20 2 0 1 0 2 0 3z" horiz-adv-x="992.2" />

<glyph glyph-name="boire" unicode="&#xe815;" d="M948 737q0-19-24-43l-353-353v-429h179q15 0 25-10t11-25-11-25-25-11h-500q-14 0-25 11t-11 25 11 25 25 10h179v429l-353 353q-24 24-24 43 0 13 10 21t21 9 24 3h786q13 0 24-3t21-9 10-21z" horiz-adv-x="1000" />

<glyph glyph-name="heart" unicode="&#xe816;" d="M500-88q-14 0-25 10l-348 337q-5 4-15 14t-31 37-38 54-30 68-13 77q0 122 71 191t196 70q34 0 70-12t67-33 54-38 42-38q20 20 42 38t54 38 67 33 70 12q125 0 196-70t71-191q0-124-128-252l-347-335q-10-10-25-10z" horiz-adv-x="1000" />

<glyph glyph-name="star" unicode="&#xe817;" d="M929 480q0-12-15-27l-202-197 48-279q0-4 0-12 0-11-6-19t-17-8q-10 0-22 6l-251 132-250-132q-12-6-23-6-11 0-17 8t-6 19q0 4 1 12l48 279-203 197q-14 15-14 27 0 21 31 26l280 40 126 254q11 23 27 23t28-23l125-254 280-40q32-5 32-26z" horiz-adv-x="928.7" />

<glyph glyph-name="check" unicode="&#xe818;" d="M933 525q0-22-16-38l-480-480q-16-15-38-15t-38 15l-278 278q-15 16-15 38t15 38l76 76q16 16 38 16t38-16l164-165 366 367q16 16 38 16t38-16l76-76q16-15 16-38z" horiz-adv-x="1000" />

<glyph glyph-name="close" unicode="&#xe819;" d="M724 103q0-22-15-38l-76-76q-16-15-38-15t-38 15l-164 165-164-165q-16-15-38-15t-38 15l-76 76q-16 16-16 38t16 38l164 164-164 164q-16 16-16 38t16 38l76 76q16 16 38 16t38-16l164-164 164 164q16 16 38 16t38-16l76-76q15-15 15-38t-15-38l-164-164 164-164q15-15 15-38z" horiz-adv-x="786.1" />

<glyph glyph-name="home" unicode="&#xe81a;" d="M786 288v-268q0-15-11-26t-25-10h-214v214h-143v-214h-214q-15 0-25 10t-11 26v268q0 0 0 1t0 2l321 264 321-264q1-1 1-3z m124 38l-34-41q-5-5-12-6h-2q-7 0-12 4l-386 322-386-322q-7-5-13-4-7 1-12 6l-35 41q-4 6-3 13t6 12l401 334q18 15 42 15t43-15l136-113v108q0 8 5 13t13 5h107q8 0 13-5t5-13v-227l122-102q6-4 6-12t-4-13z" horiz-adv-x="928.7" />

<glyph glyph-name="chevron-left" unicode="&#xe81b;" d="M654 673l-297-296 297-296q10-11 10-26t-10-25l-93-92q-11-11-25-11t-25 11l-414 414q-11 10-11 25t11 25l414 414q10 11 25 11t25-11l93-93q10-10 10-25t-10-25z" horiz-adv-x="713.9" />

<glyph glyph-name="chevron-right" unicode="&#xe81c;" d="M618 352l-414-414q-11-11-25-11t-25 11l-93 92q-11 11-11 25t11 26l296 296-296 296q-11 11-11 25t11 25l93 93q10 11 25 11t25-11l414-414q10-11 10-25t-10-25z" horiz-adv-x="713.9" />

<glyph glyph-name="eye" unicode="&#xe81d;" d="M929 305q-85 132-213 197 34-58 34-125 0-103-73-177t-177-73-177 73-73 177q0 67 34 125-128-65-213-197 75-114 187-182t242-68 243 68 186 182z m-402 215q0 11-8 19t-19 7q-70 0-120-49t-50-120q0-11 8-19t19-8 19 8 8 19q0 48 34 82t82 34q11 0 19 8t8 19z m473-215q0-19-11-38-78-128-210-206t-279-77-279 78-210 205q-11 19-11 38t11 39q78 128 210 205t279 78 279-78 210-205q11-20 11-39z" horiz-adv-x="1000" />

<glyph glyph-name="plane" unicode="&#xe81e;" d="M768 752q24-29 7-83t-61-96l-90-90 90-388q3-11-7-18l-71-54q-4-3-11-3-2 0-4 0-8 2-12 9l-155 284-145-145 30-108q3-10-5-17l-53-54q-5-5-13-5h-1q-9 1-14 7l-105 141-141 105q-6 4-7 13-1 7 5 14l54 54q5 5 12 5 4 0 5 0l108-30 145 145-284 155q-8 5-9 14-1 9 5 15l71 71q8 7 17 5l371-89 89 89q43 43 96 61t83-7z" horiz-adv-x="786.1" />

<glyph glyph-name="comments" unicode="&#xe81f;" d="M786 413q0-78-53-144t-143-104-197-38q-48 0-98 9-70-49-155-72-21-5-48-9h-2q-6 0-12 5t-6 12q-1 1-1 3t1 4 1 3l1 3t2 3 2 3 3 3 2 2q3 3 13 14t15 17 12 16 14 21 11 25q-69 40-108 99t-40 125q0 77 53 143t143 104 197 38 197-38 143-104 53-143z m214-143q0-67-40-126t-108-98q5-13 11-25t14-21 13-16 14-17 13-14q0 0 2-2t3-3 2-3 2-3l1-3t1-3 1-4-1-3q-2-8-7-13t-12-4q-28 4-48 9-86 23-156 72-50-9-98-9-151 0-263 74 32-3 49-3 90 0 172 26t148 72q69 51 107 118t37 142q0 43-13 84 72-39 114-99t42-128z" horiz-adv-x="1000" />

<glyph glyph-name="twitter" unicode="&#xe820;" d="M904 613q-37-54-90-93 0-8 0-23 0-73-21-145t-64-139-103-117-144-82-181-30q-151 0-276 81 19-2 43-2 126 0 224 77-59 1-105 36t-64 89q19-3 34-3 24 0 48 6-63 13-104 62t-41 115v2q38-21 82-23-37 25-59 64t-22 86q0 49 25 91 68-83 164-133t208-55q-5 21-5 41 0 75 53 128t127 52q79 0 132-57 61 12 115 44-21-64-80-99 52 5 104 27z" horiz-adv-x="928.7" />

<glyph glyph-name="facebook" unicode="&#xe821;" d="M535 834v-147h-87q-48 0-65-20t-17-60v-106h164l-22-165h-142v-424h-171v424h-142v165h142v122q0 104 58 161t155 57q82 0 127-7z" horiz-adv-x="571.3" />

<glyph glyph-name="globe" unicode="&#xe822;" d="M429 770q116 0 215-58t156-156 57-215-57-215-156-156-215-58-216 58-155 156-58 215 58 215 155 156 216 58z m153-291q-2-1-6-5t-7-6q1 0 2 3t3 6 2 4q3 4 12 9 8 3 29 6 19 5 29-6-1 1 5 7t8 7q2 1 8 3t9 4l1 12q-7-1-10 4t-3 12q0-1-4-5 0 4-2 5t-7-1-5 0q-5 1-8 4t-5 9-2 8q-1 3-5 6t-5 6q-1 1-2 3t-1 4-3 3-3 1-4-3-4-5-2-3q-2 1-4 1t-2-1-3-1-3-2q-1-1-4-2t-5-1q8 3-1 6-5 2-9 2 6 2 5 6t-5 8h3q-1 2-5 5t-10 5-7 3q-5 3-19 5t-18 1q-3-4-3-6t2-8 2-7q1-3-3-7t-3-7q0-4 7-9t6-12q-2-4-9-9t-9-6q-3-5-1-11t6-9q1-1 1-2t-2-3-3-2-4-2l-1-1q-7-3-12 4t-7 14q-4 14-9 17-13 4-16-1-3 7-23 15-14 5-33 2 4 1 0 8-4 9-10 7 1 3 2 10t0 7q2 8 7 13 1 1 4 5t5 7 1 4q19-2 28 6 2 3 6 9t6 10q5 3 8 3t8-3 8-3q8 0 8 6t-4 11q7 0 2 10-3 4-5 5-6 2-15-3-4-2 2-4-1 0-6-6t-9-10-9 3q0 0-3 7t-5 8q-5 0-9-8 1 4-6 8t-14 4q11 7-4 15-4 3-12 3t-11-2q-2-4-3-6t3-5 6-3 6-2 5-2q8-5 5-8-1 0-5-2t-6-2-4-2q-1-3 0-8t-1-8q-3 3-5 10t-4 9q4-5-14-3l-5 0q-3 0-9-1t-12 0-7 4q-3 4 0 11 0 2 2 1-2 2-6 6t-6 4q-25-8-52-23 3 0 6 1 3 1 8 4t5 3q19 7 24 4l3 2q7-9 11-14-4 3-17 1-11-3-12-7 4-6 2-10-2 2-6 6t-8 6-8 3q-9 0-13-1-81-44-131-124 4-4 7-4 2-1 3-5t1-6 6 1q5-4 2-10 1 0 25-15 10-10 11-12 2-6-5-10-1 1-5 5t-5 2q-2-3 0-10t6-7q-4 0-5-9t-2-20 0-13l1-1q-2-6 3-19t12-11q-7-1 11-24 3-4 4-5 2-1 7-4t9-5 5-6q2-3 6-13t8-13q-2-3 5-11t6-13q-1 0-2-1t-1 0q2-4 9-8t8-7q1-2 1-6t2-6 4-1q2 11-13 35-8 14-9 16-2 3-4 8t-2 9q1 0 3-1t5-2 4-3 1-1q-1-4 1-10t7-10 10-11 6-7q4-3 8-11t0-8q5 0 11-5t10-11q3-5 4-15t3-13q1-4 5-8t7-5l9-4t7-4q3-2 10-6t12-7q6-2 9-2t8 2 8 1q8 2 16-8t12-12q20-10 30-6-1 0 1-4t4-9 5-8 3-4q3-4 10-9t10-8q4 2 4 5-1-5 4-11t10-6q8 2 8 18-17-8-27 10 0 1-2 3t-2 5-1 5 0 4 2 1q5 0 6 2t-1 7-2 8q-1 4-6 11t-7 8q-3-5-9-4t-9 5q0-1-1-3t-1-4q-7 0-8 1 1 1 1 9t2 13q1 2 3 7t5 8 2 7-3 5-9 1q-11 0-15-11-1-2-2-6t-2-6-5-4q-4-2-14-1t-13 3q-8 4-13 16t-5 20q0 6 1 15t2 14-3 14q2 1 5 5t5 6q2 1 3 1t3 0 2 1 1 3q0 1-2 2-1 1-2 1 4-1 16 1t15-1q9-6 12 2 0 0-1 5t0 7q3-15 16-5 2-1 9-2t9-3q2-1 4-3t3-3 3 0 5 4q5-8 7-13 6-23 10-25 4-2 6-1t3 5 0 8-1 7l-1 5v10l0 4q-8 2-10 7t0 10 9 10q0 1 4 2t9 4 7 4q12 11 8 20 4 0 6 5 0 0-2 2t-5 3-2 1q5 2 1 9 3 1 4 6t4 5q5-6 12-1 4 5 1 9 2 4 11 6t10 5q4-1 5 1t0 7 2 7q2 3 8 5t8 3l9 6q2 2 0 2 10-1 18 6 5 6-4 11 2 4-1 6t-9 3q2 0 7 0t5 1q9 5-3 9-10 2-24-7z m-91-490q115 21 195 106-1 2-7 3t-7 1q-10 4-13 5 1 4-1 7t-5 5-7 5-6 4q-1 1-4 3t-4 3-4 3-5 1-5-1l-2 0q-2-1-3-2t-3-2-2-1 0-2q-12 10-20 13-3 0-6 3t-6 4-6 0-6-3q-3-3-4-9t-1-7q-4 3 0 10t1 10q-1 3-6 3t-6-3-7-5-5-3-4-3-5-5q-2-2-4-6t-2-6q-1 2-7 3t-5 3q1-5 2-19t3-21q4-18-7-27-15-14-16-23-2-12 7-14 0-4-5-12t-4-12q0-3 2-9z" horiz-adv-x="857.4" />

<glyph glyph-name="social" unicode="&#xe823;" d="M331 341q-90-3-148-71h-75q-45 0-77 22t-31 66q0 197 69 197 4 0 25-11t54-24 66-12q38 0 75 13-3-21-3-37 0-78 45-143z m598-355q0-67-41-106t-108-39h-488q-68 0-108 39t-41 106q0 29 2 57t8 61 14 61 24 54 35 45 48 30 62 11q6 0 24-12t41-26 59-27 76-12 75 12 60 27 41 26 24 12q34 0 62-11t47-30 35-45 24-54 15-61 8-61 2-57z m-572 712q0-59-42-101t-101-42-101 42-42 101 42 101 101 42 101-42 42-101z m393-214q0-89-63-152t-151-62-152 62-63 152 63 151 152 63 151-63 63-151z m321-126q0-43-31-66t-77-22h-75q-57 68-147 71 45 65 45 143 0 16-3 37 37-13 74-13 33 0 67 12t54 24 24 11q69 0 69-197z m-71 340q0-59-42-101t-101-42-101 42-42 101 42 101 101 42 101-42 42-101z" horiz-adv-x="1071.3" />

<glyph glyph-name="google-plus" unicode="&#xe824;" d="M410 397q0-20 18-39t43-38 51-41 43-58 18-80q0-50-27-96-40-68-118-100t-166-33q-74 0-138 24t-95 76q-21 34-21 74 0 45 25 83t66 64q73 46 225 56-18 24-26 42t-9 40q0 20 12 48-26-3-38-3-83 0-139 54t-57 137q0 46 20 88t55 74q43 36 102 54t122 18h233l-77-49h-73q41-35 62-74t21-89q0-41-13-73t-33-52-39-36-33-34-14-37z m-81 53q21 0 43 10t37 24q30 32 30 89 0 32-10 69t-27 73-47 57-65 23q-24 0-46-11t-37-29q-26-33-26-89 0-26 5-55t18-57 29-52 42-37 54-15z m1-487q32 0 62 7t55 22 41 41 15 61q0 14-4 27t-8 24-15 23-16 19-22 20-20 16-23 17-21 14q-8 1-26 1-30 0-59-4t-60-14-54-25-38-42-15-59q0-39 19-69t51-46 67-25 71-8z m452 489h119v-60h-119v-122h-59v122h-118v60h118v121h59v-121z" horiz-adv-x="928.7" />

<glyph glyph-name="health" unicode="&#xe825;" d="M714 448q0 15-10 25t-25 11-25-11-11-25 11-25 25-10 25 10 10 25z m72 0q0-34-20-62t-52-39v-220q0-89-73-152t-177-63-176 63-74 152v73q-91 12-153 72t-61 141v285q0 15 11 25t25 11q3 0 9-1 9 17 26 27t36 10q30 0 51-21t21-51-21-50-51-21q-18 0-36 10v-224q0-60 53-101t126-42 126 42 53 101v224q-18-10-36-10-30 0-51 21t-21 50 21 51 51 21q19 0 36-10t26-27q6 1 9 1 15 0 25-11t11-25v-285q0-81-61-141t-153-72v-73q0-59 52-101t126-42 126 42 53 101v220q-32 12-52 39t-20 62q0 45 32 76t76 31 76-31 31-76z" horiz-adv-x="786.1" />

<glyph glyph-name="suitcase" unicode="&#xe826;" d="M357 627h286v71h-286v-71z m-196 0v-715h-36q-51 0-88 37t-37 89v464q0 51 37 88t88 37h36z m625 0v-715h-572v715h72v89q0 22 15 38t38 16h322q22 0 38-16t15-38v-89h72z m214-125v-464q0-52-37-89t-88-37h-36v715h36q51 0 88-37t37-88z" horiz-adv-x="1000" />

<glyph glyph-name="manger" unicode="&#xe827;" d="M357 805v-357q0-34-20-62t-51-39v-435q0-29-21-50t-51-21h-71q-29 0-50 21t-22 50v435q-31 11-51 39t-20 62v357q0 15 11 26t25 10 25-10 10-26v-232q0-14 11-25t25-10 25 10 11 25v232q0 15 11 26t25 10 25-10 10-26v-232q0-14 11-25t25-10 25 10 11 25v232q0 15 10 26t25 10 26-10 10-26z m429 0v-893q0-29-21-50t-51-21h-71q-29 0-50 21t-22 50v286h-125q-7 0-12 6t-5 12v447q0 73 52 126t126 52h143q15 0 25-10t11-26z" horiz-adv-x="786.1" />

<glyph glyph-name="calendar" unicode="&#xe828;" d="M71-88h786v572h-786v-572z m215 679v161q0 8-5 13t-13 5h-36q-8 0-13-5t-5-13v-161q0-8 5-13t13-5h36q8 0 13 5t5 13z m428 0v161q0 8-5 13t-13 5h-35q-8 0-13-5t-5-13v-161q0-8 5-13t13-5h35q8 0 13 5t5 13z m215 36v-715q0-29-22-50t-50-21h-786q-29 0-50 21t-21 50v715q0 29 21 50t50 21h72v54q0 37 26 63t63 26h36q37 0 63-26t26-63v-54h214v54q0 37 27 63t63 26h35q37 0 64-26t26-63v-54h71q29 0 50-21t22-50z" horiz-adv-x="928.7" />

<glyph glyph-name="youtube" unicode="&#xe829;" d="M714 341q0 21-16 30l-286 179q-17 11-36 1-19-10-19-31v-357q0-22 19-32 9-4 17-4 11 0 19 5l286 179q16 9 16 30z m286 0q0-53-1-84t-4-76-13-82q-9-41-38-69t-70-32q-123-14-374-14t-374 14q-40 4-70 32t-39 69q-7 36-12 82t-4 76-1 84 1 84 4 76 13 82q9 41 38 69t70 32q123 14 374 14t374-14q40-4 70-32t39-69q8-36 12-82t4-76 1-84z" horiz-adv-x="1000" />

<glyph glyph-name="administratif" unicode="&#xe82a;" d="M607 386q0 14-10 25t-26 10h-142q-15 0-26-10t-10-25 10-25 26-11h142q15 0 26 11t10 25z m322 107v-536q0-14-11-25t-25-11h-786q-14 0-25 11t-11 25v536q0 14 11 25t25 11h786q14 0 25-11t11-25z m35 250v-143q0-15-10-25t-25-11h-858q-14 0-25 11t-10 25v143q0 14 10 25t25 11h858q14 0 25-11t10-25z" horiz-adv-x="1000" />

<glyph glyph-name="recipes" unicode="&#xe82b;" d="M915 583q22-32 10-72l-154-505q-10-36-42-60t-69-25h-515q-43 0-83 30t-55 74q-14 37-1 71 0 2 1 15t3 20q0 5-2 12t-2 11q1 6 5 12t9 13 9 13q13 21 25 51t17 51q2 6 0 17t0 16q2 6 9 15t10 13q12 20 23 51t14 51q1 5-1 17t0 16q2 7 12 17t13 13q10 14 23 47t16 54q0 4-2 14t-1 15q1 4 5 10t10 13 10 11q4 7 9 17t8 20 9 20 11 18 15 13 20 6 26-3l0-1q21 5 28 5h425q41 0 63-32t10-72l-152-506q-20-66-40-85t-72-20h-485q-15 0-21-8-6-9-1-24 14-39 81-39h515q16 0 31 9t19 23l168 550q4 13 3 32 21-8 33-24z m-594-1q-2-7 1-12t11-6h339q8 0 15 6t9 12l12 36q2 7-2 12t-11 6h-339q-7 0-14-6t-9-12z m-46-143q-3-7 1-12t11-6h339q7 0 14 6t10 12l11 36q3 7-1 13t-11 5h-339q-8 0-14-5t-10-13z" horiz-adv-x="928.6" />

<glyph glyph-name="up-open" unicode="&#xe82c;" d="M939 107l-92-92q-11-10-26-10t-25 10l-296 297-296-297q-11-10-25-10t-26 10l-92 92q-11 11-11 26t11 25l414 414q11 10 25 10t25-10l414-414q11-11 11-25t-11-26z" horiz-adv-x="1000" />

<glyph glyph-name="ballon" unicode="&#xe82d;" d="M512 138c-57 47-87 109-98 180-18 122 13 231 93 325 38 44 85 76 142 91 92 24 182-11 237-92 36-54 53-113 54-177 3-114-34-212-114-293-39-39-85-67-140-77-7-1-6-3-4-8 8-16 3-28-13-37-17-9-36-10-55-8-10 1-13-2-17-11-16-36-35-72-51-109-10-21-18-43-26-65-2-6-3-9-10-6-8 3-15 5-23 7-13 3-13 3-9 16 12 43 34 82 54 122 8 17 15 35 23 52 3 5 1 6-3 9-12 6-23 13-35 20-3 2-6 6-9 9-19 20-18 35 4 52z m-134 21c20-15 34-33 41-58 9-29 5-58-5-87-14-37-25-75-26-116 0-11 1-22 2-34 0-4 0-6-5-7-12-1-23-3-35-4-1 0-4 4-5 6-5 40-1 80 10 118 5 19 13 38 18 57 3 13 6 27 6 40-2 29-19 47-45 57-7 3-10 5-6 12 3 6-1 6-6 6-15 2-32 2-47 6-24 8-29 23-19 44-20 8-41 14-61 23-69 33-117 87-151 154-28 56-43 115-44 178-1 82 19 158 75 221 70 80 178 97 272 46 60-33 103-81 135-140 4-6 1-10-2-14-13-18-26-36-39-54-42-58-61-124-63-196-2-64 4-127 29-187 5-11 9-22 15-32 5-8 3-12-4-16-13-8-26-15-40-23z" horiz-adv-x="940" />
</font>
</defs>
</svg>
